{
    "asset" : {
        "copyright" : "CidadeAlta",
        "generator" : "Khronos glTF Blender I/O v1.7.33",
        "version" : "2.0"
    },
    "scene" : 0,
    "scenes" : [
        {
            "name" : "Scene",
            "nodes" : [
                0
            ]
        }
    ],
    "nodes" : [
        {
            "mesh" : 0,
            "name" : "glock",
            "rotation" : [
                0.7071068286895752,
                0,
                0,
                0.7071067094802856
            ]
        }
    ],
    "materials" : [
        {
            "doubleSided" : true,
            "name" : "frame_d",
            "normalTexture" : {
                "index" : 0
            },
            "pbrMetallicRoughness" : {
                "baseColorTexture" : {
                    "index" : 1
                },
                "metallicFactor" : 0,
                "roughnessFactor" : 0.7418010830879211
            }
        },
        {
            "doubleSided" : true,
            "name" : "int_d",
            "normalTexture" : {
                "index" : 2
            },
            "pbrMetallicRoughness" : {
                "baseColorTexture" : {
                    "index" : 3
                },
                "metallicFactor" : 0,
                "roughnessFactor" : 0.5527864098548889
            }
        },
        {
            "doubleSided" : true,
            "name" : "slide_d",
            "normalTexture" : {
                "index" : 4
            },
            "pbrMetallicRoughness" : {
                "baseColorTexture" : {
                    "index" : 5
                },
                "metallicFactor" : 0,
                "roughnessFactor" : 0.5527864098548889
            }
        },
        {
            "doubleSided" : true,
            "name" : "mag_d",
            "normalTexture" : {
                "index" : 6
            },
            "pbrMetallicRoughness" : {
                "baseColorTexture" : {
                    "index" : 7
                },
                "metallicFactor" : 0,
                "roughnessFactor" : 0.5527864098548889
            }
        }
    ],
    "meshes" : [
        {
            "name" : "glock",
            "primitives" : [
                {
                    "attributes" : {
                        "POSITION" : 0,
                        "NORMAL" : 1,
                        "TEXCOORD_0" : 2
                    },
                    "indices" : 3,
                    "material" : 0
                },
                {
                    "attributes" : {
                        "POSITION" : 4,
                        "NORMAL" : 5,
                        "TEXCOORD_0" : 6
                    },
                    "indices" : 7,
                    "material" : 1
                },
                {
                    "attributes" : {
                        "POSITION" : 8,
                        "NORMAL" : 9,
                        "TEXCOORD_0" : 10
                    },
                    "indices" : 11,
                    "material" : 2
                },
                {
                    "attributes" : {
                        "POSITION" : 12,
                        "NORMAL" : 13,
                        "TEXCOORD_0" : 14
                    },
                    "indices" : 15,
                    "material" : 3
                }
            ]
        }
    ],
    "textures" : [
        {
            "sampler" : 0,
            "source" : 0
        },
        {
            "sampler" : 0,
            "source" : 1
        },
        {
            "sampler" : 0,
            "source" : 2
        },
        {
            "sampler" : 0,
            "source" : 3
        },
        {
            "sampler" : 0,
            "source" : 4
        },
        {
            "sampler" : 0,
            "source" : 5
        },
        {
            "sampler" : 0,
            "source" : 6
        },
        {
            "sampler" : 0,
            "source" : 7
        }
    ],
    "images" : [
        {
            "mimeType" : "image/jpeg",
            "name" : "frame_n",
            "uri" : "textures/frame_n.jpg"
        },
        {
            "mimeType" : "image/jpeg",
            "name" : "frame_d",
            "uri" : "textures/frame_d.jpg"
        },
        {
            "mimeType" : "image/jpeg",
            "name" : "int_n",
            "uri" : "textures/int_n.jpg"
        },
        {
            "mimeType" : "image/jpeg",
            "name" : "int_d",
            "uri" : "textures/int_d.jpg"
        },
        {
            "mimeType" : "image/jpeg",
            "name" : "slide_n",
            "uri" : "textures/slide_n.jpg"
        },
        {
            "mimeType" : "image/jpeg",
            "name" : "slide_d",
            "uri" : "textures/slide_d.jpg"
        },
        {
            "mimeType" : "image/jpeg",
            "name" : "mag_n",
            "uri" : "textures/mag_n.jpg"
        },
        {
            "mimeType" : "image/jpeg",
            "name" : "mag_d",
            "uri" : "textures/mag_d.jpg"
        }
    ],
    "accessors" : [
        {
            "bufferView" : 0,
            "componentType" : 5126,
            "count" : 10447,
            "max" : [
                0.09271650016307831,
                0.01590000092983246,
                0.08630000054836273
            ],
            "min" : [
                -0.12051299959421158,
                -0.01590000092983246,
                -0.044599998742341995
            ],
            "type" : "VEC3"
        },
        {
            "bufferView" : 1,
            "componentType" : 5126,
            "count" : 10447,
            "type" : "VEC3"
        },
        {
            "bufferView" : 2,
            "componentType" : 5126,
            "count" : 10447,
            "type" : "VEC2"
        },
        {
            "bufferView" : 3,
            "componentType" : 5123,
            "count" : 22557,
            "type" : "SCALAR"
        },
        {
            "bufferView" : 4,
            "componentType" : 5126,
            "count" : 310,
            "max" : [
                -0.015012900345027447,
                0.011500000022351742,
                0.013199999928474426
            ],
            "min" : [
                -0.10111299902200699,
                -0.007300000172108412,
                -0.029999999329447746
            ],
            "type" : "VEC3"
        },
        {
            "bufferView" : 5,
            "componentType" : 5126,
            "count" : 310,
            "type" : "VEC3"
        },
        {
            "bufferView" : 6,
            "componentType" : 5126,
            "count" : 310,
            "type" : "VEC2"
        },
        {
            "bufferView" : 7,
            "componentType" : 5123,
            "count" : 618,
            "type" : "SCALAR"
        },
        {
            "bufferView" : 8,
            "componentType" : 5126,
            "count" : 1685,
            "max" : [
                0.09090810269117355,
                0.013100000098347664,
                -0.01269999984651804
            ],
            "min" : [
                -0.10139200091362,
                -0.012900000438094139,
                -0.048700001090765
            ],
            "type" : "VEC3"
        },
        {
            "bufferView" : 9,
            "componentType" : 5126,
            "count" : 1685,
            "type" : "VEC3"
        },
        {
            "bufferView" : 10,
            "componentType" : 5126,
            "count" : 1685,
            "type" : "VEC2"
        },
        {
            "bufferView" : 11,
            "componentType" : 5123,
            "count" : 4182,
            "type" : "SCALAR"
        },
        {
            "bufferView" : 12,
            "componentType" : 5126,
            "count" : 909,
            "max" : [
                -0.038665398955345154,
                0.014499999582767487,
                0.10198000073432922
            ],
            "min" : [
                -0.11016499996185303,
                -0.014499999582767487,
                -0.02041959948837757
            ],
            "type" : "VEC3"
        },
        {
            "bufferView" : 13,
            "componentType" : 5126,
            "count" : 909,
            "type" : "VEC3"
        },
        {
            "bufferView" : 14,
            "componentType" : 5126,
            "count" : 909,
            "type" : "VEC2"
        },
        {
            "bufferView" : 15,
            "componentType" : 5123,
            "count" : 2808,
            "type" : "SCALAR"
        }
    ],
    "bufferViews" : [
        {
            "buffer" : 0,
            "byteLength" : 125364,
            "byteOffset" : 0
        },
        {
            "buffer" : 0,
            "byteLength" : 125364,
            "byteOffset" : 125364
        },
        {
            "buffer" : 0,
            "byteLength" : 83576,
            "byteOffset" : 250728
        },
        {
            "buffer" : 0,
            "byteLength" : 45114,
            "byteOffset" : 334304
        },
        {
            "buffer" : 0,
            "byteLength" : 3720,
            "byteOffset" : 379420
        },
        {
            "buffer" : 0,
            "byteLength" : 3720,
            "byteOffset" : 383140
        },
        {
            "buffer" : 0,
            "byteLength" : 2480,
            "byteOffset" : 386860
        },
        {
            "buffer" : 0,
            "byteLength" : 1236,
            "byteOffset" : 389340
        },
        {
            "buffer" : 0,
            "byteLength" : 20220,
            "byteOffset" : 390576
        },
        {
            "buffer" : 0,
            "byteLength" : 20220,
            "byteOffset" : 410796
        },
        {
            "buffer" : 0,
            "byteLength" : 13480,
            "byteOffset" : 431016
        },
        {
            "buffer" : 0,
            "byteLength" : 8364,
            "byteOffset" : 444496
        },
        {
            "buffer" : 0,
            "byteLength" : 10908,
            "byteOffset" : 452860
        },
        {
            "buffer" : 0,
            "byteLength" : 10908,
            "byteOffset" : 463768
        },
        {
            "buffer" : 0,
            "byteLength" : 7272,
            "byteOffset" : 474676
        },
        {
            "buffer" : 0,
            "byteLength" : 5616,
            "byteOffset" : 481948
        }
    ],
    "samplers" : [
        {
            "magFilter" : 9729,
            "minFilter" : 9987
        }
    ],
    "buffers" : [
        {
            "byteLength" : 487564,
            "uri" : "glock.bin"
        }
    ]
}
